<svg width="104" height="82" viewBox="0 0 104 82" fill="none" xmlns="http://www.w3.org/2000/svg">
<path d="M92 67.6667C92 75 86 81 78.6667 81H25.3333C18 81 12 75 12 67.6667V14.3333C12 7 18 1 25.3333 1H78.6667C86 1 92 7 92 14.3333V67.6667Z" fill="#563D7C"/>
<path d="M33.7385 18.3856H56.4183C60.6013 18.3856 63.9607 19.3399 66.4836 21.2614C69.0065 23.183 70.2745 26.0719 70.2745 29.9542C70.2745 32.3072 69.6993 34.3203 68.549 35.9935C67.3986 37.6667 65.7516 38.9739 63.6078 39.8889V40.0196C66.4836 40.634 68.6666 41.9935 70.1437 44.098C71.6209 46.2157 72.366 48.8562 72.366 52.0458C72.366 53.8758 72.0392 55.5882 71.3856 57.1699C70.732 58.7647 69.7124 60.1373 68.3137 61.2876C66.915 62.4379 65.1372 63.3529 62.9542 64.0327C60.7712 64.7124 58.183 65.0523 55.1764 65.0523H33.7385V18.3856ZM41.9085 37.9281H55.2418C57.2026 37.9281 58.8366 37.3791 60.1437 36.2549C61.4509 35.1307 62.1045 33.5359 62.1045 31.4444C62.1045 29.0915 61.5163 27.4314 60.3398 26.4771C59.1634 25.5229 57.464 25.0392 55.2418 25.0392H41.9085V37.9281ZM41.9085 58.3856H56.3529C58.8366 58.3856 60.7712 57.7451 62.1307 56.451C63.5032 55.1699 64.196 53.3399 64.196 50.9869C64.196 48.6732 63.5163 46.9085 62.1307 45.6536C60.7451 44.3987 58.8366 43.7974 56.3529 43.7974H41.9085V58.3856Z" fill="white"/>
</svg>
