<svg width="104" height="82" viewBox="0 0 104 82" fill="none" xmlns="http://www.w3.org/2000/svg">
<path d="M88 0L81.4406 73.4817L51.9559 81.6559L22.5524 73.4933L16 0H88Z" fill="#264DE4"/>
<path d="M75.8251 68.8027L81.4305 6.00916H52V75.4079L75.8251 68.8027Z" fill="#2965F1"/>
<path d="M31.0212 33.2667L31.8291 42.2803H51.9999V33.2667H31.0212Z" fill="#EBEBEB"/>
<path d="M52 15.0229H51.9689H29.3981L30.2174 24.0367H52V15.0229Z" fill="#EBEBEB"/>
<path d="M52 66.0541V56.6761L51.9605 56.6866L41.9219 53.976L41.2802 46.7872H36.4023H32.2319L33.4947 60.9399L51.9585 66.0656L52 66.0541Z" fill="#EBEBEB"/>
<path d="M63.0682 42.2803L62.0219 53.9704L51.9689 56.6838V66.0613L70.4473 60.94L70.5829 59.4172L72.701 35.6872L72.9209 33.2668L74.5482 15.0229H51.9689V24.0367H64.67L63.8498 33.2668H51.9689V42.2803H63.0682Z" fill="white"/>
</svg>
