<svg width="104" height="82" viewBox="0 0 104 82" fill="none" xmlns="http://www.w3.org/2000/svg">
<path d="M15.398 19.2322C7.87233 30.0488 8.80917 44.1213 14.5581 55.6143C14.6948 55.8898 14.838 56.161 14.9791 56.4321C15.0695 56.604 15.1544 56.7804 15.2481 56.9501C15.301 57.0515 15.3605 57.1507 15.4156 57.2477C15.5137 57.4307 15.614 57.6048 15.7154 57.7834C15.8939 58.0986 16.0769 58.4116 16.2642 58.7246C16.3679 58.8965 16.4704 59.0685 16.5773 59.2404C16.7845 59.5755 16.9972 59.9061 17.2143 60.2368C17.3047 60.3778 17.3929 60.5189 17.4854 60.6556C17.7852 61.1031 18.0916 61.5483 18.4079 61.987C18.4158 61.9983 18.4244 62.0113 18.4343 62.0222C18.484 62.0927 18.5391 62.1611 18.5897 62.2316C18.8631 62.6086 19.1452 62.9811 19.4307 63.3492C19.5354 63.4837 19.6412 63.6182 19.747 63.7526C20.0016 64.0722 20.2606 64.3897 20.5241 64.7071C20.6221 64.8261 20.7213 64.9451 20.8205 65.062C21.1743 65.4786 21.5347 65.893 21.9028 66.2986C21.9096 66.3049 21.9183 66.314 21.9248 66.3206C21.9403 66.3382 21.9535 66.3492 21.9667 66.3668C22.326 66.7592 22.6941 67.1427 23.0667 67.5263C23.1824 67.6454 23.3004 67.7644 23.4194 67.8812C23.7081 68.1722 24.0013 68.4588 24.2978 68.7431C24.4179 68.8577 24.537 68.9746 24.6571 69.0848C25.0528 69.4573 25.4529 69.8232 25.8607 70.1804C25.8674 70.1867 25.8727 70.1916 25.8794 70.1958C25.9488 70.2576 26.0205 70.3148 26.0888 70.3743C26.4481 70.6852 26.8141 70.9938 27.1821 71.298C27.332 71.4192 27.4841 71.5383 27.6351 71.6595C27.936 71.8998 28.2402 72.1379 28.5466 72.3715C28.7086 72.495 28.8706 72.6184 29.0338 72.7419C29.3721 72.9909 29.7127 73.2356 30.0566 73.4759C30.1822 73.5663 30.3035 73.6544 30.4291 73.7404C30.4643 73.7647 30.4964 73.7889 30.5316 73.8132C30.8578 74.038 31.1918 74.254 31.5247 74.4701C31.6679 74.5649 31.8101 74.664 31.9545 74.7566C32.4659 75.0807 32.9851 75.4003 33.5097 75.7089C33.6518 75.7905 33.7962 75.8698 33.9395 75.9514C34.3253 76.174 34.7132 76.3923 35.1067 76.6061C35.3194 76.7207 35.5376 76.8287 35.7525 76.9389C36.0303 77.0844 36.3058 77.2321 36.588 77.3732C36.6519 77.4041 36.718 77.4349 36.7809 77.4657C36.8944 77.5208 37.009 77.5737 37.1225 77.631C37.5601 77.8405 38.001 78.0455 38.4463 78.2439C38.5411 78.2858 38.6325 78.3277 38.7262 78.3695C39.2365 78.5921 39.7512 78.806 40.2704 79.011C40.3949 79.0616 40.5205 79.1102 40.6462 79.1587C41.1267 79.3438 41.6139 79.5268 42.1033 79.6987C42.165 79.7208 42.2245 79.7406 42.2862 79.7625C42.823 79.9499 43.3653 80.1241 43.9108 80.2938C44.0409 80.3313 44.172 80.3732 44.3032 80.4106C44.8587 80.5782 45.4076 80.7788 45.9807 80.8846C82.3764 87.5218 92.9483 59.0128 92.9483 59.0128C84.0693 70.5807 68.3083 73.6316 53.3754 70.2349C52.81 70.1071 52.2611 69.9307 51.7089 69.7676C51.5689 69.7257 51.4312 69.6839 51.2934 69.6419C50.7544 69.4766 50.2198 69.3025 49.6887 69.1195C49.6159 69.0932 49.5421 69.0666 49.4682 69.0402C48.9921 68.8726 48.5215 68.6963 48.053 68.5155C47.9208 68.4626 47.7885 68.4119 47.6563 68.359C47.1426 68.1562 46.6324 67.9446 46.1286 67.7242C46.025 67.68 45.9258 67.6338 45.8233 67.5897C45.3902 67.3935 44.9614 67.1951 44.5349 66.9901C44.4115 66.9306 44.288 66.8733 44.1624 66.8116C43.8274 66.6482 43.496 66.4739 43.1656 66.3042C42.9444 66.1877 42.7196 66.0775 42.5001 65.9556C42.0966 65.7399 41.7002 65.515 41.3056 65.2857C41.172 65.2108 41.0366 65.1385 40.902 65.0609C40.3774 64.7521 39.8592 64.4325 39.3463 64.1083C39.2046 64.018 39.0664 63.9214 38.9265 63.8284C38.5545 63.5883 38.1843 63.3436 37.8195 63.0926C37.6986 63.0104 37.5821 62.9228 37.4629 62.8416C37.1108 62.5924 36.7623 62.3405 36.4164 62.0849C36.2593 61.9685 36.1049 61.8511 35.9524 61.7346C35.6354 61.4917 35.3203 61.247 35.0079 60.996C34.8669 60.8836 34.7258 60.7712 34.5869 60.6588C34.1901 60.3325 33.7978 60.0041 33.4109 59.6669C33.3701 59.6316 33.326 59.5963 33.2819 59.5588C32.8631 59.1907 32.452 58.8138 32.0453 58.4346C31.9274 58.3222 31.8128 58.212 31.697 58.0996C31.3961 57.813 31.0997 57.5243 30.8087 57.2289C30.6919 57.112 30.575 56.9974 30.4604 56.8806C30.0901 56.5015 29.7264 56.1179 29.3703 55.7278C29.3527 55.7079 29.334 55.6903 29.3164 55.6704C28.9394 55.2582 28.5713 54.8372 28.2109 54.4118C28.1128 54.295 28.018 54.1826 27.921 54.0679C27.6521 53.7439 27.3854 53.4155 27.1252 53.0848C27.0277 52.9656 26.9302 52.8437 26.8336 52.7209C26.5203 52.3146 26.2142 51.9092 25.9145 51.4975C17.6238 40.1887 14.6454 24.5912 21.2718 11.7819" fill="#0868AC"/>
<path d="M38.759 10.1193C33.3165 17.9513 33.6119 28.4354 37.8574 36.7186C38.5694 38.1073 39.3696 39.4542 40.2645 40.7371C41.0801 41.9053 41.9839 43.2963 43.0662 44.2354C43.4586 44.6674 43.8686 45.0884 44.2874 45.5028C44.3931 45.6109 44.5012 45.7145 44.6092 45.8203C45.0159 46.2148 45.4292 46.6028 45.8568 46.9798C45.8744 46.9929 45.8899 47.0106 45.9075 47.0239C45.912 47.0284 45.9165 47.0302 45.9196 47.0352C46.3924 47.4496 46.8806 47.8486 47.3767 48.2409C47.4869 48.3246 47.596 48.4129 47.7073 48.4988C48.2044 48.8802 48.7114 49.2549 49.2316 49.612C49.2471 49.6233 49.2603 49.634 49.2757 49.6451C49.505 49.8038 49.7386 49.9515 49.9712 50.1036C50.0825 50.1763 50.1883 50.2535 50.3007 50.3218C50.6722 50.5599 51.048 50.7913 51.4304 51.014C51.4845 51.047 51.5373 51.0757 51.5903 51.1065C51.9198 51.2961 52.2538 51.4834 52.5889 51.6642C52.7057 51.7303 52.8247 51.7876 52.9438 51.8494C53.1752 51.9706 53.4067 52.094 53.6425 52.2109C53.6777 52.2285 53.7142 52.2439 53.7483 52.2594C54.2277 52.4953 54.7116 52.7224 55.2054 52.9384C55.3111 52.9847 55.4203 53.0265 55.5272 53.0706C55.9218 53.2382 56.3207 53.4013 56.7219 53.5556C56.8916 53.6195 57.0636 53.6812 57.2333 53.743C57.597 53.8774 57.9618 54.0009 58.33 54.1243C58.4964 54.1772 58.6595 54.2323 58.8259 54.283C59.3494 54.4461 59.8663 54.6511 60.412 54.7415C88.5127 59.397 95 37.7617 95 37.7617C89.152 46.1844 77.827 50.2027 65.7417 47.066C65.205 46.9249 64.676 46.7706 64.1502 46.6053C63.9893 46.5568 63.8317 46.5039 63.6719 46.451C63.2982 46.3298 62.9268 46.2019 62.5587 46.0674C62.3901 46.0057 62.2214 45.944 62.0561 45.8801C61.6527 45.7258 61.2537 45.5649 60.858 45.3973C60.75 45.351 60.6409 45.3092 60.5351 45.2607C60.0391 45.0446 59.5509 44.8176 59.0693 44.5795C58.8213 44.4583 58.5777 44.3304 58.3341 44.2048C58.193 44.1321 58.0508 44.0593 57.9098 43.9866C57.5967 43.8168 57.2859 43.6405 56.9795 43.4619C56.9068 43.42 56.8307 43.3803 56.7569 43.3363C56.3766 43.1136 56.0019 42.8844 55.6304 42.6485C55.5158 42.5758 55.4056 42.4964 55.291 42.4215C55.0463 42.2628 54.8016 42.1019 54.5613 41.9387C54.0433 41.5816 53.5396 41.2069 53.0426 40.8277C52.9279 40.7373 52.8133 40.6492 52.7009 40.5588C47.4108 36.382 43.2178 30.6748 41.2242 24.2029C39.1349 17.4907 39.5855 9.95608 43.2052 3.84167" fill="#0868AC"/>
<path d="M58.407 3.3106C55.1985 8.03229 54.8833 13.8961 57.1097 19.1113C59.4573 24.6464 64.2683 28.9889 69.8829 31.0475C70.1144 31.1336 70.3459 31.2106 70.5806 31.29C70.6831 31.3209 70.7845 31.3562 70.8881 31.3869C71.2188 31.4905 71.5472 31.6118 71.8889 31.6757C87.4051 34.6736 91.6135 23.7136 92.734 22.1005C89.0473 27.4085 82.8518 28.6826 75.2504 26.8376C74.6499 26.6914 73.9899 26.4747 73.4112 26.2697C72.669 26.0052 71.9377 25.7036 71.2271 25.3623C69.8772 24.714 68.5906 23.9267 67.3979 23.0256C60.5955 17.8647 56.3699 8.01861 60.8086 0" fill="#0868AC"/>
</svg>
