<svg width="104" height="82" viewBox="0 0 104 82" fill="none" xmlns="http://www.w3.org/2000/svg">
<path d="M93 0H11V82H93V0Z" fill="#F7DF1E"/>
<path d="M66.0833 64.0628C67.735 66.7597 69.8839 68.742 73.6845 68.742C76.8773 68.742 78.9169 67.1463 78.9169 64.9414C78.9169 62.2991 76.8214 61.3633 73.3071 59.8261L71.3807 58.9996C65.8203 56.6307 62.1264 53.6631 62.1264 47.3895C62.1264 41.6104 66.5297 37.2111 73.4112 37.2111C78.3104 37.2111 81.8325 38.9161 84.3706 43.3806L78.3702 47.2333C77.0491 44.8644 75.6239 43.9312 73.4112 43.9312C71.1542 43.9312 69.7238 45.3629 69.7238 47.2333C69.7238 49.5449 71.1555 50.4807 74.4616 51.9125L76.3879 52.7377C82.9349 55.5452 86.6314 58.4074 86.6314 64.8424C86.6314 71.7799 81.1817 75.5805 73.8628 75.5805C66.7067 75.5805 62.0835 72.1704 59.8213 67.7007L66.0833 64.0628ZM38.8632 64.7305C40.0736 66.8781 41.1748 68.6938 43.8222 68.6938C46.3538 68.6938 47.9509 67.7033 47.9509 63.8519V37.651H55.6562V63.9561C55.6562 71.9348 50.9783 75.5662 44.1502 75.5662C37.9807 75.5662 34.4078 72.3734 32.5908 68.5279L38.8632 64.7305Z" fill="black"/>
</svg>
