<svg width="104" height="82" viewBox="0 0 104 82" fill="none" xmlns="http://www.w3.org/2000/svg">
<path d="M1.46228 41C1.46228 55.6576 24.0892 67.5402 51.9999 67.5402C79.9105 67.5402 102.538 55.6576 102.538 41C102.538 26.3426 79.9105 14.4599 51.9999 14.4599C24.0892 14.4599 1.46228 26.3426 1.46228 41Z" fill="url(#paint0_radial_473_476)"/>
<path d="M51.9999 65.5696C78.8204 65.5696 100.563 54.5693 100.563 40.9999C100.563 27.4306 78.8204 16.4302 51.9999 16.4302C25.1794 16.4302 3.4364 27.4306 3.4364 40.9999C3.4364 54.5693 25.1794 65.5696 51.9999 65.5696Z" fill="#777BB3"/>
<path d="M28.9198 44.0462C31.1252 44.0462 32.7716 43.6402 33.8133 42.8398C34.8438 42.0477 35.5556 40.6752 35.9287 38.7608C36.2765 36.9713 36.144 35.7219 35.535 35.0476C34.9122 34.3589 33.5658 34.0097 31.5332 34.0097H28.0088L26.055 44.0462H28.9198ZM17.3926 56.4094C17.229 56.4094 17.0736 56.3364 16.9696 56.2102C16.8654 56.0841 16.8232 55.918 16.8544 55.7576L22.0325 29.1605C22.0826 28.9034 22.3083 28.7176 22.5708 28.7176H33.7308C37.2382 28.7176 39.8488 29.6684 41.4897 31.5438C43.1394 33.429 43.6488 36.0642 43.0037 39.3761C42.7413 40.7254 42.2898 41.9785 41.6619 43.1004C41.0333 44.2236 40.2025 45.2628 39.1922 46.1898C37.9829 47.3198 36.6142 48.1391 35.1277 48.6212C33.6648 49.097 31.7861 49.3382 29.5439 49.3382H25.0249L23.7345 55.9664C23.6844 56.2237 23.4588 56.4094 23.1963 56.4094H17.3926Z" fill="black"/>
<path d="M28.4609 34.557H31.5332C33.9864 34.557 34.8386 35.0944 35.1281 35.4147C35.6085 35.9464 35.6992 37.0676 35.3904 38.6569C35.0435 40.4361 34.4005 41.6976 33.4788 42.406C32.5353 43.1312 31.0013 43.4987 28.9199 43.4987H26.7202L28.4609 34.557ZM33.7309 28.1701H22.5707C22.0457 28.1701 21.5944 28.5416 21.4943 29.0561L16.3162 55.6531C16.2537 55.9741 16.3381 56.3061 16.5463 56.5584C16.7547 56.8108 17.0651 56.9568 17.3926 56.9568H23.1962C23.7214 56.9568 24.1727 56.5853 24.2728 56.0708L25.477 49.8856H29.5439C31.8438 49.8856 33.7799 49.6352 35.298 49.1416C36.8592 48.6352 38.2955 47.7766 39.5668 46.5898C40.6182 45.6241 41.4843 44.5401 42.1405 43.3677C42.7969 42.1948 43.2685 40.887 43.5421 39.4804C44.2212 35.9942 43.6695 33.2026 41.9027 31.1836C40.153 29.184 37.4035 28.1701 33.7309 28.1701ZM25.3897 44.5936H28.9199C31.2598 44.5936 33.0027 44.1536 34.1478 43.2735C35.2932 42.3932 36.0657 40.924 36.4671 38.8653C36.8511 36.8886 36.6762 35.4937 35.9423 34.6811C35.2075 33.8685 33.738 33.4621 31.5332 33.4621H27.5568L25.3897 44.5936V44.5936ZM33.7309 29.265C37.0882 29.265 39.5374 30.1446 41.0768 31.9039C42.6161 33.6632 43.0797 36.1189 42.4655 39.2716C42.2127 40.5704 41.7851 41.7578 41.1832 42.8335C40.5806 43.91 39.7937 44.8943 38.8212 45.7868C37.6623 46.8695 36.3749 47.641 34.9583 48.1005C33.5417 48.5613 31.7374 48.7907 29.5439 48.7907H24.5728L23.1962 55.8619H17.3926L22.5707 29.265H33.7309" fill="white"/>
<path d="M56.3106 49.3383C56.1468 49.3383 55.9916 49.2653 55.8876 49.139C55.7832 49.0129 55.741 48.847 55.7723 48.6864L58.0628 36.9183C58.2807 35.7991 58.2269 34.9958 57.9116 34.6564C57.7186 34.4489 57.1388 34.1009 55.4244 34.1009H51.2747L48.3949 48.8952C48.3448 49.1525 48.119 49.3383 47.8566 49.3383H42.0987C41.9349 49.3383 41.7797 49.2653 41.6755 49.139C41.5713 49.0129 41.5291 48.8468 41.5604 48.6864L46.7384 22.0894C46.7885 21.8322 47.0143 21.6465 47.2768 21.6465H53.0346C53.1984 21.6465 53.3536 21.7195 53.4578 21.8456C53.562 21.9718 53.6042 22.1377 53.5729 22.2983L52.3234 28.7177H56.7875C60.1883 28.7177 62.4943 29.3162 63.8375 30.5476C65.2066 31.8038 65.6337 33.8124 65.1073 36.5183L62.6981 48.8952C62.6481 49.1525 62.4225 49.3383 62.1598 49.3383H56.3106Z" fill="black"/>
<path d="M53.0347 21.0989H47.2768C46.7517 21.0989 46.3003 21.4705 46.2002 21.9849L41.0221 48.582C40.9596 48.903 41.0441 49.2349 41.2524 49.4873C41.4608 49.7396 41.7712 49.8856 42.0988 49.8856H47.8566C48.3816 49.8856 48.8331 49.5141 48.9332 48.9997L51.7268 34.6483H55.4245C57.1359 34.6483 57.4951 35.0133 57.5095 35.029C57.6134 35.1405 57.7499 35.6569 57.5245 36.8138L55.234 48.582C55.1715 48.903 55.2559 49.2349 55.4643 49.4873C55.6727 49.7396 55.9831 49.8856 56.3106 49.8856H62.1599C62.6849 49.8856 63.1363 49.5141 63.2365 48.9997L65.6455 36.6228C66.2109 33.7175 65.7272 31.5381 64.2086 30.1446C62.7594 28.816 60.332 28.1702 56.7875 28.1702H52.9884L54.1113 22.4028C54.1736 22.0818 54.0894 21.7497 53.881 21.4975C53.6726 21.2451 53.3622 21.0989 53.0347 21.0989ZM53.0347 22.1938L51.6581 29.2651H56.7875C60.015 29.2651 62.2412 29.8275 63.4665 30.9508C64.6917 32.0749 65.0587 33.8963 64.569 36.414L62.1599 48.7907H56.3106L58.6012 37.0228C58.8618 35.6841 58.766 34.7709 58.3134 34.2841C57.8607 33.7972 56.8976 33.5534 55.4245 33.5534H50.8226L47.8566 48.7907H42.0988L47.2768 22.1938H53.0347Z" fill="white"/>
<path d="M74.2179 44.0462C76.4232 44.0462 78.0696 43.6402 79.1113 42.8398C80.1419 42.0478 80.8537 40.6754 81.2269 38.7608C81.5748 36.9713 81.4423 35.7219 80.833 35.0476C80.2103 34.3589 78.8638 34.0097 76.8312 34.0097H73.3069L71.353 44.0462H74.2179ZM62.6908 56.4094C62.5272 56.4094 62.3719 56.3364 62.2679 56.2102C62.1637 56.0841 62.1213 55.918 62.1525 55.7576L67.3306 29.1605C67.3808 28.9034 67.6064 28.7176 67.8691 28.7176H79.0289C82.5365 28.7176 85.1469 29.6684 86.7879 31.5438C88.4376 33.4288 88.9469 36.064 88.302 39.3761C88.0391 40.7254 87.5878 41.9785 86.96 43.1004C86.3313 44.2236 85.5006 45.2628 84.4903 46.1898C83.281 47.3198 81.9122 48.1391 80.4258 48.6212C78.9629 49.097 77.0842 49.3382 74.8419 49.3382H70.3228L69.0329 55.9664C68.9826 56.2237 68.7571 56.4094 68.4944 56.4094H62.6908Z" fill="black"/>
<path d="M73.7589 34.557H76.8312C79.2845 34.557 80.1366 35.0944 80.4262 35.4147C80.9067 35.9464 80.9974 37.0676 80.6885 38.6567C80.3415 40.4361 79.6983 41.6976 78.7769 42.406C77.8333 43.1312 76.2993 43.4987 74.2179 43.4987H72.0184L73.7589 34.557ZM79.0289 28.1701H67.8689C67.3439 28.1701 66.8926 28.5416 66.7925 29.0561L61.6144 55.6531C61.5519 55.9741 61.6363 56.3061 61.8445 56.5584C62.0529 56.8108 62.3633 56.9568 62.6909 56.9568H68.4944C69.0194 56.9568 69.4709 56.5853 69.571 56.0708L70.7751 49.8856H74.842C77.1418 49.8856 79.0779 49.6352 80.596 49.1416C82.1572 48.6352 83.5939 47.7764 84.8652 46.5894C85.9166 45.6239 86.7823 44.5401 87.4385 43.3677C88.0949 42.1948 88.5665 40.887 88.8401 39.4804C89.5192 35.9941 88.9675 33.2024 87.2007 31.1835C85.451 29.184 82.7017 28.1701 79.0289 28.1701ZM70.6879 44.5936H74.2179C76.5578 44.5936 78.3007 44.1536 79.4459 43.2735C80.5914 42.3932 81.3637 40.924 81.7651 38.8653C82.1493 36.8886 81.9744 35.4937 81.2403 34.6811C80.5055 33.8685 79.036 33.4621 76.8312 33.4621H72.8548L70.6879 44.5936ZM79.0289 29.265C82.3862 29.265 84.8354 30.1446 86.3749 31.9039C87.9143 33.6632 88.3777 36.1189 87.7635 39.2716C87.5107 40.5704 87.0832 41.7578 86.4812 42.8335C85.8786 43.91 85.0917 44.8943 84.1192 45.7868C82.9603 46.8695 81.673 47.641 80.2563 48.1005C78.8397 48.5613 77.0354 48.7907 74.842 48.7907H69.8708L68.4944 55.8619H62.6909L67.8689 29.265H79.0289" fill="white"/>
<defs>
<radialGradient id="paint0_radial_473_476" cx="0" cy="0" r="1" gradientUnits="userSpaceOnUse" gradientTransform="translate(31.8053 23.7906) scale(66.3631 66.2519)">
<stop stop-color="#AEB2D5"/>
<stop offset="0.3" stop-color="#AEB2D5"/>
<stop offset="0.75" stop-color="#484C89"/>
<stop offset="1" stop-color="#484C89"/>
</radialGradient>
</defs>
</svg>
